<svg width="20" height="19" viewBox="0 0 20 19" fill="none" xmlns="http://www.w3.org/2000/svg">
<path d="M6.25 3.56395V4.75145H18.125V7.10214L16.7383 11.2827H5.85672L4.29422 0.59375H0.625V1.78125H3.20578L4.76828 12.4702H17.655L19.375 7.28479V3.56395H6.25Z" fill="#F2F7F5"/>
<path d="M6.91345 13.6691C6.25064 13.6698 5.6152 13.9202 5.14652 14.3655C4.67784 14.8107 4.41421 15.4144 4.41345 16.0441C4.41345 16.674 4.67684 17.278 5.14569 17.7234C5.61453 18.1688 6.25041 18.4191 6.91345 18.4191C7.57649 18.4191 8.21238 18.1688 8.68122 17.7234C9.15006 17.278 9.41345 16.674 9.41345 16.0441C9.41271 15.4144 9.14908 14.8107 8.6804 14.3655C8.21172 13.9202 7.57626 13.6698 6.91345 13.6691ZM6.91345 17.2316C6.66623 17.2316 6.42455 17.1619 6.21899 17.0314C6.01343 16.901 5.85321 16.7155 5.7586 16.4985C5.66399 16.2815 5.63924 16.0428 5.68747 15.8124C5.7357 15.582 5.85475 15.3705 6.02957 15.2044C6.20438 15.0383 6.42711 14.9252 6.66959 14.8794C6.91207 14.8336 7.1634 14.8571 7.39181 14.947C7.62021 15.0368 7.81544 15.189 7.95279 15.3843C8.09014 15.5796 8.16345 15.8092 8.16345 16.0441C8.16306 16.3589 8.03124 16.6607 7.7969 16.8833C7.56257 17.106 7.24485 17.2312 6.91345 17.2316Z" fill="#F2F7F5"/>
<path d="M15.6635 13.6691C15.0006 13.6698 14.3652 13.9202 13.8965 14.3655C13.4278 14.8107 13.1642 15.4144 13.1635 16.0441C13.1635 16.674 13.4268 17.278 13.8957 17.7234C14.3645 18.1688 15.0004 18.4191 15.6635 18.4191C16.3265 18.4191 16.9624 18.1688 17.4312 17.7234C17.9001 17.278 18.1635 16.674 18.1635 16.0441C18.1627 15.4144 17.8991 14.8107 17.4304 14.3655C16.9617 13.9202 16.3263 13.6698 15.6635 13.6691ZM15.6635 17.2316C15.4162 17.2316 15.1746 17.1619 14.969 17.0314C14.7634 16.901 14.6032 16.7155 14.5086 16.4985C14.414 16.2815 14.3892 16.0428 14.4375 15.8124C14.4857 15.582 14.6048 15.3705 14.7796 15.2044C14.9544 15.0383 15.1771 14.9252 15.4196 14.8794C15.6621 14.8336 15.9134 14.8571 16.1418 14.947C16.3702 15.0368 16.5654 15.189 16.7028 15.3843C16.8401 15.5796 16.9135 15.8092 16.9135 16.0441C16.9131 16.3589 16.7812 16.6607 16.5469 16.8833C16.3126 17.106 15.9949 17.2312 15.6635 17.2316Z" fill="#F2F7F5"/>
</svg>
