<svg width="27" height="27" viewBox="0 0 27 27" fill="none" xmlns="http://www.w3.org/2000/svg">
<path d="M13.4964 6.57319C9.66323 6.57319 6.5697 9.66679 6.5697 13.5C6.5697 17.3332 9.66323 20.4268 13.4964 20.4268C17.3295 20.4268 20.423 17.3332 20.423 13.5C20.423 9.66679 17.3295 6.57319 13.4964 6.57319ZM13.4964 18.0019C11.0175 18.0019 8.99454 15.9789 8.99454 13.5C8.99454 11.0211 11.0175 8.99808 13.4964 8.99808C15.9752 8.99808 17.9982 11.0211 17.9982 13.5C17.9982 15.9789 15.9752 18.0019 13.4964 18.0019ZM20.7067 4.67516C19.8118 4.67516 19.089 5.3979 19.089 6.29288C19.089 7.18786 19.8118 7.9106 20.7067 7.9106C21.6017 7.9106 22.3244 7.19124 22.3244 6.29288C22.3247 6.08036 22.283 5.86988 22.2018 5.67349C22.1206 5.4771 22.0015 5.29866 21.8512 5.14839C21.7009 4.99811 21.5225 4.87896 21.3261 4.79776C21.1297 4.71656 20.9192 4.6749 20.7067 4.67516V4.67516ZM26.9985 13.5C26.9985 11.6357 27.0154 9.78837 26.9107 7.92748C26.806 5.76602 26.3129 3.84773 24.7324 2.26716C23.1485 0.683215 21.2336 0.19351 19.0722 0.0888138C17.2079 -0.0158819 15.3606 0.00100455 13.4997 0.00100455C11.6355 0.00100455 9.78819 -0.0158819 7.92734 0.0888138C5.76592 0.19351 3.84766 0.686593 2.26712 2.26716C0.683203 3.85111 0.193506 5.76602 0.0888122 7.92748C-0.0158816 9.79174 0.00100453 11.6391 0.00100453 13.5C0.00100453 15.3609 -0.0158816 17.2116 0.0888122 19.0725C0.193506 21.234 0.68658 23.1523 2.26712 24.7328C3.85103 26.3168 5.76592 26.8065 7.92734 26.9112C9.79156 27.0159 11.6389 26.999 13.4997 26.999C15.364 26.999 17.2113 27.0159 19.0722 26.9112C21.2336 26.8065 23.1518 26.3134 24.7324 24.7328C26.3163 23.1489 26.806 21.234 26.9107 19.0725C27.0188 17.2116 26.9985 15.3643 26.9985 13.5V13.5ZM24.0265 21.4636C23.78 22.0783 23.4828 22.5376 23.0066 23.0104C22.5304 23.4866 22.0745 23.7838 21.4599 24.0304C19.6834 24.7362 15.4653 24.5775 13.4964 24.5775C11.5275 24.5775 7.30593 24.7362 5.52951 24.0337C4.91486 23.7872 4.45556 23.49 3.98275 23.0138C3.50656 22.5376 3.20936 22.0817 2.96283 21.467C2.26036 19.6872 2.41909 15.469 2.41909 13.5C2.41909 11.531 2.26036 7.30944 2.96283 5.53299C3.20936 4.91833 3.50656 4.45902 3.98275 3.9862C4.45893 3.51338 4.91486 3.2128 5.52951 2.96626C7.30593 2.26378 11.5275 2.42252 13.4964 2.42252C15.4653 2.42252 19.6868 2.26378 21.4632 2.96626C22.0779 3.2128 22.5372 3.51 23.01 3.9862C23.4862 4.46239 23.7834 4.91833 24.0299 5.53299C24.7324 7.30944 24.5736 11.531 24.5736 13.5C24.5736 15.469 24.7324 19.6872 24.0265 21.4636Z" fill="#201B1B"/>
</svg>
