<svg width="190" height="60" viewBox="0 0 190 60" fill="none" xmlns="http://www.w3.org/2000/svg">
<path d="M84.114 25.58H83.862C83.502 25.58 83.16 25.682 82.836 25.886C82.524 26.078 82.26 26.324 82.044 26.624L78.498 32.384V36.686C78.498 36.998 78.606 37.268 78.822 37.496C79.05 37.712 79.326 37.82 79.65 37.82H79.866V38H75.942V37.82H76.176C76.488 37.82 76.752 37.712 76.968 37.496C77.196 37.28 77.316 37.016 77.328 36.704V32.366L73.89 26.624C73.71 26.336 73.452 26.09 73.116 25.886C72.792 25.682 72.45 25.58 72.09 25.58H71.838V25.4H76.266V25.58H76.032C75.768 25.58 75.564 25.7 75.42 25.94C75.348 26.072 75.312 26.204 75.312 26.336C75.312 26.456 75.342 26.576 75.402 26.696L78.102 31.736L80.982 26.678C81.042 26.558 81.072 26.438 81.072 26.318C81.072 26.198 81.03 26.072 80.946 25.94C80.802 25.7 80.598 25.58 80.334 25.58H80.118V25.4H84.114V25.58ZM86.3096 26.966C87.5096 25.754 89.0696 25.148 90.9896 25.148C92.9096 25.148 94.4696 25.754 95.6696 26.966C96.8696 28.166 97.4696 29.744 97.4696 31.7C97.4696 33.656 96.8696 35.24 95.6696 36.452C94.4696 37.652 92.9096 38.252 90.9896 38.252C89.0696 38.252 87.5096 37.652 86.3096 36.452C85.1216 35.24 84.5276 33.656 84.5276 31.7C84.5276 29.744 85.1216 28.166 86.3096 26.966ZM87.2996 36.056C88.2356 37.16 89.4656 37.712 90.9896 37.712C92.5256 37.712 93.7556 37.16 94.6796 36.056C95.6156 34.952 96.0836 33.5 96.0836 31.7C96.0836 30.512 95.8736 29.462 95.4536 28.55C95.0336 27.638 94.4336 26.936 93.6536 26.444C92.8856 25.94 91.9976 25.688 90.9896 25.688C89.4656 25.688 88.2356 26.24 87.2996 27.344C86.3756 28.448 85.9136 29.9 85.9136 31.7C85.9136 33.5 86.3756 34.952 87.2996 36.056ZM111.316 25.58H111.028C110.776 25.58 110.554 25.664 110.362 25.832C110.182 25.988 110.086 26.186 110.074 26.426V33.554C110.074 34.958 109.63 36.092 108.742 36.956C107.854 37.82 106.672 38.252 105.196 38.252C103.72 38.252 102.52 37.826 101.596 36.974C100.684 36.11 100.228 34.976 100.228 33.572V26.48C100.228 26.12 100.072 25.856 99.7599 25.688C99.6159 25.616 99.4539 25.58 99.2739 25.58H98.9859V25.4H102.64V25.58H102.352C102.088 25.58 101.866 25.664 101.686 25.832C101.506 25.988 101.41 26.192 101.398 26.444V33.32C101.398 34.628 101.746 35.684 102.442 36.488C103.15 37.292 104.092 37.694 105.268 37.694C106.444 37.694 107.398 37.316 108.13 36.56C108.862 35.792 109.228 34.79 109.228 33.554V26.444C109.216 26.192 109.12 25.988 108.94 25.832C108.76 25.664 108.538 25.58 108.274 25.58H107.986V25.4H111.316V25.58ZM122.821 27.002C122.821 26.714 122.719 26.468 122.515 26.264C122.311 26.048 122.071 25.934 121.795 25.922H118.375V36.704C118.387 37.016 118.501 37.28 118.717 37.496C118.945 37.712 119.215 37.82 119.527 37.82H119.761V38H115.819V37.82H116.053C116.365 37.82 116.629 37.712 116.845 37.496C117.073 37.28 117.193 37.022 117.205 36.722V25.922H113.785C113.497 25.934 113.251 26.048 113.047 26.264C112.855 26.468 112.759 26.714 112.759 27.002V27.308L112.579 27.326V25.058C112.759 25.13 113.071 25.202 113.515 25.274C113.959 25.346 114.367 25.382 114.739 25.382H120.823C121.411 25.382 121.897 25.34 122.281 25.256C122.677 25.16 122.917 25.094 123.001 25.058V27.326L122.821 27.308V27.002ZM133.192 37.82C133.504 37.82 133.768 37.712 133.984 37.496C134.212 37.28 134.332 37.016 134.344 36.704V32.042H126.982V36.686C126.982 36.998 127.096 37.268 127.324 37.496C127.552 37.712 127.822 37.82 128.134 37.82H128.368V38H124.426V37.82H124.66C124.972 37.82 125.236 37.712 125.452 37.496C125.68 37.268 125.8 36.998 125.812 36.686V26.696C125.8 26.384 125.68 26.12 125.452 25.904C125.236 25.688 124.972 25.58 124.66 25.58H124.426V25.4H128.368V25.58H128.134C127.822 25.58 127.552 25.688 127.324 25.904C127.108 26.12 126.994 26.384 126.982 26.696V31.502H134.344V26.696C134.332 26.264 134.14 25.94 133.768 25.724C133.588 25.628 133.396 25.58 133.192 25.58H132.958V25.4H136.9V25.58H136.666C136.354 25.58 136.084 25.694 135.856 25.922C135.64 26.138 135.526 26.402 135.514 26.714V36.686C135.526 36.998 135.64 37.268 135.856 37.496C136.084 37.712 136.354 37.82 136.666 37.82H136.9V38H132.958V37.82H133.192ZM148.5 38H139.068V37.838L146.628 25.922H140.562C140.262 25.934 140.01 26.042 139.806 26.246C139.602 26.45 139.5 26.702 139.5 27.002V27.326H139.32V25.058C139.5 25.13 139.818 25.202 140.274 25.274C140.73 25.346 141.048 25.382 141.228 25.382C141.42 25.382 141.516 25.382 141.516 25.382H146.52C147.108 25.382 147.558 25.352 147.87 25.292C148.182 25.22 148.368 25.172 148.428 25.148V25.31L140.724 37.46H146.448C147.084 37.46 147.606 37.256 148.014 36.848C148.422 36.44 148.722 35.9 148.914 35.228H149.094L148.5 38ZM152.491 26.966C153.691 25.754 155.251 25.148 157.171 25.148C159.091 25.148 160.651 25.754 161.851 26.966C163.051 28.166 163.651 29.744 163.651 31.7C163.651 33.656 163.051 35.24 161.851 36.452C160.651 37.652 159.091 38.252 157.171 38.252C155.251 38.252 153.691 37.652 152.491 36.452C151.303 35.24 150.709 33.656 150.709 31.7C150.709 29.744 151.303 28.166 152.491 26.966ZM153.481 36.056C154.417 37.16 155.647 37.712 157.171 37.712C158.707 37.712 159.937 37.16 160.861 36.056C161.797 34.952 162.265 33.5 162.265 31.7C162.265 30.512 162.055 29.462 161.635 28.55C161.215 27.638 160.615 26.936 159.835 26.444C159.067 25.94 158.179 25.688 157.171 25.688C155.647 25.688 154.417 26.24 153.481 27.344C152.557 28.448 152.095 29.9 152.095 31.7C152.095 33.5 152.557 34.952 153.481 36.056ZM178.184 25.58C177.884 25.58 177.626 25.688 177.41 25.904C177.194 26.108 177.08 26.36 177.068 26.66V35.948C177.068 36.644 177.11 37.304 177.194 37.928L177.23 38.252H177.068L167.258 27.776V36.74C167.27 37.16 167.456 37.472 167.816 37.676C167.984 37.772 168.164 37.82 168.356 37.82H168.698V38H164.99V37.82H165.332C165.632 37.82 165.89 37.718 166.106 37.514C166.322 37.298 166.43 37.034 166.43 36.722V27.38C166.43 26.648 166.388 25.994 166.304 25.418L166.268 25.13H166.448L176.258 35.606V26.678C176.246 26.366 176.132 26.108 175.916 25.904C175.7 25.688 175.442 25.58 175.142 25.58H174.8V25.4H178.508V25.58H178.184ZM180.453 37.82C180.765 37.82 181.029 37.712 181.245 37.496C181.473 37.268 181.593 36.998 181.605 36.686V26.606C181.569 26.318 181.443 26.078 181.227 25.886C181.011 25.682 180.753 25.58 180.453 25.58H180.237L180.219 25.4H185.493C185.865 25.4 186.267 25.364 186.699 25.292C187.143 25.22 187.455 25.148 187.635 25.076V27.344H187.455V27.02C187.455 26.732 187.353 26.486 187.149 26.282C186.957 26.078 186.723 25.97 186.447 25.958H182.775V31.52H185.817C186.057 31.508 186.261 31.418 186.429 31.25C186.597 31.082 186.681 30.872 186.681 30.62V30.368H186.861V33.212H186.681V32.942C186.681 32.702 186.597 32.498 186.429 32.33C186.273 32.162 186.075 32.072 185.835 32.06H182.775V37.442H185.349C186.237 37.442 186.915 37.244 187.383 36.848C187.851 36.452 188.241 35.864 188.553 35.084H188.733L187.689 38H180.219V37.82H180.453Z" fill="black"/>
<circle cx="25" cy="25" r="24" fill="#7B8A74" stroke="#2B3327" stroke-width="2"/>
<rect x="23.75" y="16.25" width="2.5" height="43.75" rx="1.25" fill="#2B3327"/>
<rect x="17.5" y="17.6816" width="2.5" height="11.25" rx="1.25" transform="rotate(-34.9365 17.5 17.6816)" fill="#2B3327"/>
<rect x="31.2343" y="23.75" width="2.5" height="11.25" rx="1.25" transform="rotate(41.7029 31.2343 23.75)" fill="#2B3327"/>
<rect x="33.0094" y="35" width="2.5" height="11.25" rx="1.25" transform="rotate(55.3918 33.0094 35)" fill="#2B3327"/>
<rect x="15" y="29.1782" width="2.5" height="13.602" rx="1.25" transform="rotate(-42.166 15 29.1782)" fill="#2B3327"/>
</svg>
