<svg width="27" height="19" viewBox="0 0 27 19" fill="none" xmlns="http://www.w3.org/2000/svg">
<path d="M27 9.41813C27 9.3538 27 9.2807 26.997 9.19591C26.994 8.95906 26.9879 8.69298 26.9819 8.40936C26.9578 7.59357 26.9156 6.7807 26.8493 6.01462C26.7589 4.95906 26.6263 4.07895 26.4455 3.41813C26.2547 2.72851 25.8807 2.09956 25.3609 1.59414C24.8411 1.08873 24.1937 0.72455 23.4834 0.538011C22.6306 0.315789 20.9612 0.178362 18.6107 0.0935672C17.4927 0.0526315 16.2964 0.0263156 15.1001 0.0116957C14.6812 0.00584777 14.2925 0.00292398 13.943 0H13.057C12.7075 0.00292398 12.3188 0.00584777 11.8999 0.0116957C10.7036 0.0263156 9.50725 0.0526315 8.38929 0.0935672C6.03884 0.181286 4.36641 0.318713 3.51663 0.538011C2.80607 0.724092 2.1584 1.08811 1.63851 1.5936C1.11863 2.09909 0.744791 2.72828 0.554464 3.41813C0.370647 4.07895 0.241071 4.95906 0.15067 6.01462C0.084375 6.7807 0.0421875 7.59357 0.0180803 8.40936C0.00904013 8.69298 0.00602674 8.95906 0.00301335 9.19591C0.00301335 9.2807 0 9.3538 0 9.41813V9.58187C0 9.6462 -4.60256e-08 9.7193 0.00301335 9.80409C0.00602674 10.0409 0.0120535 10.307 0.0180803 10.5906C0.0421875 11.4064 0.084375 12.2193 0.15067 12.9854C0.241071 14.0409 0.373661 14.9211 0.554464 15.5819C0.940179 16.9825 2.07321 18.0877 3.51663 18.462C4.36641 18.6842 6.03884 18.8216 8.38929 18.9064C9.50725 18.9474 10.7036 18.9737 11.8999 18.9883C12.3188 18.9942 12.7075 18.9971 13.057 19H13.943C14.2925 18.9971 14.6812 18.9942 15.1001 18.9883C16.2964 18.9737 17.4927 18.9474 18.6107 18.9064C20.9612 18.8187 22.6336 18.6813 23.4834 18.462C24.9268 18.0877 26.0598 16.9854 26.4455 15.5819C26.6294 14.9211 26.7589 14.0409 26.8493 12.9854C26.9156 12.2193 26.9578 11.4064 26.9819 10.5906C26.991 10.307 26.994 10.0409 26.997 9.80409C26.997 9.7193 27 9.6462 27 9.58187V9.41813V9.41813ZM24.8304 9.57018C24.8304 9.63158 24.8304 9.69883 24.8273 9.77778C24.8243 10.0058 24.8183 10.2573 24.8123 10.5292C24.7912 11.307 24.749 12.0848 24.6857 12.807C24.6044 13.7485 24.4898 14.5205 24.3482 15.038C24.1614 15.7135 23.6129 16.2485 22.9199 16.4269C22.2871 16.5906 20.693 16.7222 18.5263 16.8012C17.4295 16.8421 16.2482 16.8684 15.07 16.883C14.6571 16.8889 14.2744 16.8918 13.9309 16.8918H13.0691L11.93 16.883C10.7518 16.8684 9.57355 16.8421 8.47366 16.8012C6.30703 16.7193 4.70993 16.5906 4.08013 16.4269C3.38705 16.2456 2.83862 15.7135 2.65179 15.038C2.51016 14.5205 2.39565 13.7485 2.31429 12.807C2.251 12.0848 2.21183 11.307 2.18772 10.5292C2.17868 10.2573 2.17567 10.0029 2.17266 9.77778C2.17266 9.69883 2.16964 9.62865 2.16964 9.57018V9.42982C2.16964 9.36842 2.16964 9.30117 2.17266 9.22222C2.17567 8.99415 2.1817 8.74269 2.18772 8.47076C2.20882 7.69298 2.251 6.9152 2.31429 6.19298C2.39565 5.25146 2.51016 4.47953 2.65179 3.96199C2.83862 3.28655 3.38705 2.75146 4.08013 2.5731C4.71295 2.40936 6.30703 2.27778 8.47366 2.19883C9.57054 2.15789 10.7518 2.13158 11.93 2.11696C12.3429 2.11111 12.7256 2.10819 13.0691 2.10819H13.9309L15.07 2.11696C16.2482 2.13158 17.4265 2.15789 18.5263 2.19883C20.693 2.2807 22.2901 2.40936 22.9199 2.5731C23.6129 2.75439 24.1614 3.28655 24.3482 3.96199C24.4898 4.47953 24.6044 5.25146 24.6857 6.19298C24.749 6.9152 24.7882 7.69298 24.8123 8.47076C24.8213 8.74269 24.8243 8.99708 24.8273 9.22222C24.8273 9.30117 24.8304 9.37134 24.8304 9.42982V9.57018ZM10.8181 13.4181L17.8092 9.47076L10.8181 5.58187V13.4181Z" fill="#201B1B"/>
</svg>
